ISO-10303-21;
HEADER;
/* Generated by software containing ST-Developer
 * from STEP Tools, Inc. (www.steptools.com) 
 */
/* OPTION: using custom renumber hook */

FILE_DESCRIPTION(
/* description */ ('STEP AP242 Edition 2',
'CAx-IF Rec.Pracs.---Representation and Presentation of Product Manufa
cturing Information (PMI)---4.0---2014-10-13',
'CAx-IF Rec.Pracs.---3D Tessellated Geometry---0.4---2014-09-14','2;1',
'CAx-IF Rec.Pracs.---User Defined Attributes---1.5---2016-08-15'),
/* implementation_level */ '2;1');

FILE_NAME(
/* name */ '6a6c246b89520564c858cf88',
/* time_stamp */ '2026-07-31T04:28:28Z',
/* author */ (''),
/* organization */ (''),
/* preprocessor_version */ 'ST-DEVELOPER v20',
/* originating_system */ 'ONSHAPE BY PTC INC, 1.218',
/* authorisation */ '  ');

FILE_SCHEMA (('AP242_MANAGED_MODEL_BASED_3D_ENGINEERING_MIM_LF { 1 0 10303 442 3 1 4 }'));
ENDSEC;

DATA;
#10=CONTEXT_DEPENDENT_SHAPE_REPRESENTATION(#16,#1318);
#11=CONTEXT_DEPENDENT_SHAPE_REPRESENTATION(#17,#1319);
#12=CONTEXT_DEPENDENT_SHAPE_REPRESENTATION(#18,#1320);
#13=NEXT_ASSEMBLY_USAGE_OCCURRENCE('NAUO1','Part 1','Part 1',#1321,#1322,
'');
#14=NEXT_ASSEMBLY_USAGE_OCCURRENCE('NAUO2','Part 1','Part 1',#1321,#1322,
'');
#15=NEXT_ASSEMBLY_USAGE_OCCURRENCE('NAUO3','Part 1','Part 1',#1321,#1322,
'');
#16=(
REPRESENTATION_RELATIONSHIP(' ',' ',#783,#782)
REPRESENTATION_RELATIONSHIP_WITH_TRANSFORMATION(#19)
SHAPE_REPRESENTATION_RELATIONSHIP()
);
#17=(
REPRESENTATION_RELATIONSHIP(' ',' ',#783,#782)
REPRESENTATION_RELATIONSHIP_WITH_TRANSFORMATION(#20)
SHAPE_REPRESENTATION_RELATIONSHIP()
);
#18=(
REPRESENTATION_RELATIONSHIP(' ',' ',#783,#782)
REPRESENTATION_RELATIONSHIP_WITH_TRANSFORMATION(#21)
SHAPE_REPRESENTATION_RELATIONSHIP()
);
#19=ITEM_DEFINED_TRANSFORMATION(' ',' ',#784,#861);
#20=ITEM_DEFINED_TRANSFORMATION(' ',' ',#784,#862);
#21=ITEM_DEFINED_TRANSFORMATION(' ',' ',#784,#863);
#22=SHAPE_REPRESENTATION_RELATIONSHIP('','',#783,#23);
#23=ADVANCED_BREP_SHAPE_REPRESENTATION('',(#779),#1310);
#24=CIRCLE('',#787,0.005);
#25=CIRCLE('',#788,0.005);
#26=CIRCLE('',#791,0.005);
#27=CIRCLE('',#792,0.005);
#28=CIRCLE('',#795,0.005);
#29=CIRCLE('',#796,0.005);
#30=CIRCLE('',#799,0.005);
#31=CIRCLE('',#800,0.005);
#32=CIRCLE('',#803,0.005);
#33=CIRCLE('',#804,0.005);
#34=CIRCLE('',#807,0.005);
#35=CIRCLE('',#808,0.005);
#36=CIRCLE('',#810,0.001);
#37=CIRCLE('',#811,0.001);
#38=CIRCLE('',#812,0.001);
#39=CIRCLE('',#813,0.001);
#40=CIRCLE('',#814,0.001);
#41=CIRCLE('',#815,0.001);
#42=CIRCLE('',#816,0.005);
#43=CIRCLE('',#817,0.005);
#44=CIRCLE('',#818,0.005);
#45=CIRCLE('',#819,0.005);
#46=CIRCLE('',#820,0.005);
#47=CIRCLE('',#821,0.005);
#48=CIRCLE('',#823,0.001);
#49=CIRCLE('',#824,0.001);
#50=CIRCLE('',#825,0.001);
#51=CIRCLE('',#826,0.001);
#52=CIRCLE('',#827,0.001);
#53=CIRCLE('',#828,0.001);
#54=CIRCLE('',#831,0.005);
#55=CIRCLE('',#834,0.005);
#56=CIRCLE('',#837,0.005);
#57=CIRCLE('',#840,0.005);
#58=CIRCLE('',#843,0.005);
#59=CIRCLE('',#846,0.005);
#60=CYLINDRICAL_SURFACE('',#786,0.005);
#61=CYLINDRICAL_SURFACE('',#790,0.005);
#62=CYLINDRICAL_SURFACE('',#794,0.005);
#63=CYLINDRICAL_SURFACE('',#798,0.005);
#64=CYLINDRICAL_SURFACE('',#802,0.005);
#65=CYLINDRICAL_SURFACE('',#806,0.005);
#66=CYLINDRICAL_SURFACE('',#830,0.005);
#67=CYLINDRICAL_SURFACE('',#833,0.005);
#68=CYLINDRICAL_SURFACE('',#836,0.005);
#69=CYLINDRICAL_SURFACE('',#839,0.005);
#70=CYLINDRICAL_SURFACE('',#842,0.005);
#71=CYLINDRICAL_SURFACE('',#845,0.005);
#72=CYLINDRICAL_SURFACE('',#855,0.001);
#73=CYLINDRICAL_SURFACE('',#856,0.001);
#74=CYLINDRICAL_SURFACE('',#857,0.001);
#75=CYLINDRICAL_SURFACE('',#858,0.001);
#76=CYLINDRICAL_SURFACE('',#859,0.001);
#77=CYLINDRICAL_SURFACE('',#860,0.001);
#78=ORIENTED_EDGE('',*,*,#282,.T.);
#79=ORIENTED_EDGE('',*,*,#283,.F.);
#80=ORIENTED_EDGE('',*,*,#284,.F.);
#81=ORIENTED_EDGE('',*,*,#285,.T.);
#82=ORIENTED_EDGE('',*,*,#286,.T.);
#83=ORIENTED_EDGE('',*,*,#287,.F.);
#84=ORIENTED_EDGE('',*,*,#288,.F.);
#85=ORIENTED_EDGE('',*,*,#283,.T.);
#86=ORIENTED_EDGE('',*,*,#289,.T.);
#87=ORIENTED_EDGE('',*,*,#290,.F.);
#88=ORIENTED_EDGE('',*,*,#291,.F.);
#89=ORIENTED_EDGE('',*,*,#287,.T.);
#90=ORIENTED_EDGE('',*,*,#292,.T.);
#91=ORIENTED_EDGE('',*,*,#293,.F.);
#92=ORIENTED_EDGE('',*,*,#294,.F.);
#93=ORIENTED_EDGE('',*,*,#290,.T.);
#94=ORIENTED_EDGE('',*,*,#295,.T.);
#95=ORIENTED_EDGE('',*,*,#296,.F.);
#96=ORIENTED_EDGE('',*,*,#297,.F.);
#97=ORIENTED_EDGE('',*,*,#293,.T.);
#98=ORIENTED_EDGE('',*,*,#298,.T.);
#99=ORIENTED_EDGE('',*,*,#299,.F.);
#100=ORIENTED_EDGE('',*,*,#300,.F.);
#101=ORIENTED_EDGE('',*,*,#296,.T.);
#102=ORIENTED_EDGE('',*,*,#301,.T.);
#103=ORIENTED_EDGE('',*,*,#302,.F.);
#104=ORIENTED_EDGE('',*,*,#303,.F.);
#105=ORIENTED_EDGE('',*,*,#299,.T.);
#106=ORIENTED_EDGE('',*,*,#304,.T.);
#107=ORIENTED_EDGE('',*,*,#305,.F.);
#108=ORIENTED_EDGE('',*,*,#306,.F.);
#109=ORIENTED_EDGE('',*,*,#302,.T.);
#110=ORIENTED_EDGE('',*,*,#307,.T.);
#111=ORIENTED_EDGE('',*,*,#308,.F.);
#112=ORIENTED_EDGE('',*,*,#309,.F.);
#113=ORIENTED_EDGE('',*,*,#305,.T.);
#114=ORIENTED_EDGE('',*,*,#310,.T.);
#115=ORIENTED_EDGE('',*,*,#311,.F.);
#116=ORIENTED_EDGE('',*,*,#312,.F.);
#117=ORIENTED_EDGE('',*,*,#308,.T.);
#118=ORIENTED_EDGE('',*,*,#313,.T.);
#119=ORIENTED_EDGE('',*,*,#314,.F.);
#120=ORIENTED_EDGE('',*,*,#315,.F.);
#121=ORIENTED_EDGE('',*,*,#311,.T.);
#122=ORIENTED_EDGE('',*,*,#316,.T.);
#123=ORIENTED_EDGE('',*,*,#285,.F.);
#124=ORIENTED_EDGE('',*,*,#317,.F.);
#125=ORIENTED_EDGE('',*,*,#314,.T.);
#126=ORIENTED_EDGE('',*,*,#318,.F.);
#127=ORIENTED_EDGE('',*,*,#319,.F.);
#128=ORIENTED_EDGE('',*,*,#320,.F.);
#129=ORIENTED_EDGE('',*,*,#321,.F.);
#130=ORIENTED_EDGE('',*,*,#322,.F.);
#131=ORIENTED_EDGE('',*,*,#323,.F.);
#132=ORIENTED_EDGE('',*,*,#324,.T.);
#133=ORIENTED_EDGE('',*,*,#325,.T.);
#134=ORIENTED_EDGE('',*,*,#326,.T.);
#135=ORIENTED_EDGE('',*,*,#327,.T.);
#136=ORIENTED_EDGE('',*,*,#328,.T.);
#137=ORIENTED_EDGE('',*,*,#329,.T.);
#138=ORIENTED_EDGE('',*,*,#330,.T.);
#139=ORIENTED_EDGE('',*,*,#331,.T.);
#140=ORIENTED_EDGE('',*,*,#332,.T.);
#141=ORIENTED_EDGE('',*,*,#333,.T.);
#142=ORIENTED_EDGE('',*,*,#334,.T.);
#143=ORIENTED_EDGE('',*,*,#335,.T.);
#144=ORIENTED_EDGE('',*,*,#284,.T.);
#145=ORIENTED_EDGE('',*,*,#288,.T.);
#146=ORIENTED_EDGE('',*,*,#291,.T.);
#147=ORIENTED_EDGE('',*,*,#294,.T.);
#148=ORIENTED_EDGE('',*,*,#297,.T.);
#149=ORIENTED_EDGE('',*,*,#300,.T.);
#150=ORIENTED_EDGE('',*,*,#303,.T.);
#151=ORIENTED_EDGE('',*,*,#306,.T.);
#152=ORIENTED_EDGE('',*,*,#309,.T.);
#153=ORIENTED_EDGE('',*,*,#312,.T.);
#154=ORIENTED_EDGE('',*,*,#315,.T.);
#155=ORIENTED_EDGE('',*,*,#317,.T.);
#156=ORIENTED_EDGE('',*,*,#336,.T.);
#157=ORIENTED_EDGE('',*,*,#337,.T.);
#158=ORIENTED_EDGE('',*,*,#338,.T.);
#159=ORIENTED_EDGE('',*,*,#339,.T.);
#160=ORIENTED_EDGE('',*,*,#340,.T.);
#161=ORIENTED_EDGE('',*,*,#341,.T.);
#162=ORIENTED_EDGE('',*,*,#282,.F.);
#163=ORIENTED_EDGE('',*,*,#316,.F.);
#164=ORIENTED_EDGE('',*,*,#313,.F.);
#165=ORIENTED_EDGE('',*,*,#310,.F.);
#166=ORIENTED_EDGE('',*,*,#307,.F.);
#167=ORIENTED_EDGE('',*,*,#304,.F.);
#168=ORIENTED_EDGE('',*,*,#301,.F.);
#169=ORIENTED_EDGE('',*,*,#298,.F.);
#170=ORIENTED_EDGE('',*,*,#295,.F.);
#171=ORIENTED_EDGE('',*,*,#292,.F.);
#172=ORIENTED_EDGE('',*,*,#289,.F.);
#173=ORIENTED_EDGE('',*,*,#286,.F.);
#174=ORIENTED_EDGE('',*,*,#325,.F.);
#175=ORIENTED_EDGE('',*,*,#342,.F.);
#176=ORIENTED_EDGE('',*,*,#343,.F.);
#177=ORIENTED_EDGE('',*,*,#344,.T.);
#178=ORIENTED_EDGE('',*,*,#324,.F.);
#179=ORIENTED_EDGE('',*,*,#345,.F.);
#180=ORIENTED_EDGE('',*,*,#346,.F.);
#181=ORIENTED_EDGE('',*,*,#342,.T.);
#182=ORIENTED_EDGE('',*,*,#335,.F.);
#183=ORIENTED_EDGE('',*,*,#347,.F.);
#184=ORIENTED_EDGE('',*,*,#348,.F.);
#185=ORIENTED_EDGE('',*,*,#345,.T.);
#186=ORIENTED_EDGE('',*,*,#334,.F.);
#187=ORIENTED_EDGE('',*,*,#349,.F.);
#188=ORIENTED_EDGE('',*,*,#350,.F.);
#189=ORIENTED_EDGE('',*,*,#347,.T.);
#190=ORIENTED_EDGE('',*,*,#333,.F.);
#191=ORIENTED_EDGE('',*,*,#351,.F.);
#192=ORIENTED_EDGE('',*,*,#352,.F.);
#193=ORIENTED_EDGE('',*,*,#349,.T.);
#194=ORIENTED_EDGE('',*,*,#332,.F.);
#195=ORIENTED_EDGE('',*,*,#353,.F.);
#196=ORIENTED_EDGE('',*,*,#354,.F.);
#197=ORIENTED_EDGE('',*,*,#351,.T.);
#198=ORIENTED_EDGE('',*,*,#331,.F.);
#199=ORIENTED_EDGE('',*,*,#355,.F.);
#200=ORIENTED_EDGE('',*,*,#356,.F.);
#201=ORIENTED_EDGE('',*,*,#353,.T.);
#202=ORIENTED_EDGE('',*,*,#330,.F.);
#203=ORIENTED_EDGE('',*,*,#357,.F.);
#204=ORIENTED_EDGE('',*,*,#358,.F.);
#205=ORIENTED_EDGE('',*,*,#355,.T.);
#206=ORIENTED_EDGE('',*,*,#329,.F.);
#207=ORIENTED_EDGE('',*,*,#359,.F.);
#208=ORIENTED_EDGE('',*,*,#360,.F.);
#209=ORIENTED_EDGE('',*,*,#357,.T.);
#210=ORIENTED_EDGE('',*,*,#328,.F.);
#211=ORIENTED_EDGE('',*,*,#361,.F.);
#212=ORIENTED_EDGE('',*,*,#362,.F.);
#213=ORIENTED_EDGE('',*,*,#359,.T.);
#214=ORIENTED_EDGE('',*,*,#327,.F.);
#215=ORIENTED_EDGE('',*,*,#363,.F.);
#216=ORIENTED_EDGE('',*,*,#364,.F.);
#217=ORIENTED_EDGE('',*,*,#361,.T.);
#218=ORIENTED_EDGE('',*,*,#326,.F.);
#219=ORIENTED_EDGE('',*,*,#344,.F.);
#220=ORIENTED_EDGE('',*,*,#365,.F.);
#221=ORIENTED_EDGE('',*,*,#363,.T.);
#222=ORIENTED_EDGE('',*,*,#366,.F.);
#223=ORIENTED_EDGE('',*,*,#367,.F.);
#224=ORIENTED_EDGE('',*,*,#368,.F.);
#225=ORIENTED_EDGE('',*,*,#369,.F.);
#226=ORIENTED_EDGE('',*,*,#370,.F.);
#227=ORIENTED_EDGE('',*,*,#371,.F.);
#228=ORIENTED_EDGE('',*,*,#343,.T.);
#229=ORIENTED_EDGE('',*,*,#346,.T.);
#230=ORIENTED_EDGE('',*,*,#348,.T.);
#231=ORIENTED_EDGE('',*,*,#350,.T.);
#232=ORIENTED_EDGE('',*,*,#352,.T.);
#233=ORIENTED_EDGE('',*,*,#354,.T.);
#234=ORIENTED_EDGE('',*,*,#356,.T.);
#235=ORIENTED_EDGE('',*,*,#358,.T.);
#236=ORIENTED_EDGE('',*,*,#360,.T.);
#237=ORIENTED_EDGE('',*,*,#362,.T.);
#238=ORIENTED_EDGE('',*,*,#364,.T.);
#239=ORIENTED_EDGE('',*,*,#365,.T.);
#240=ORIENTED_EDGE('',*,*,#366,.T.);
#241=ORIENTED_EDGE('',*,*,#372,.F.);
#242=ORIENTED_EDGE('',*,*,#373,.F.);
#243=ORIENTED_EDGE('',*,*,#374,.T.);
#244=ORIENTED_EDGE('',*,*,#371,.T.);
#245=ORIENTED_EDGE('',*,*,#375,.F.);
#246=ORIENTED_EDGE('',*,*,#376,.F.);
#247=ORIENTED_EDGE('',*,*,#372,.T.);
#248=ORIENTED_EDGE('',*,*,#370,.T.);
#249=ORIENTED_EDGE('',*,*,#377,.F.);
#250=ORIENTED_EDGE('',*,*,#378,.F.);
#251=ORIENTED_EDGE('',*,*,#375,.T.);
#252=ORIENTED_EDGE('',*,*,#369,.T.);
#253=ORIENTED_EDGE('',*,*,#379,.F.);
#254=ORIENTED_EDGE('',*,*,#380,.F.);
#255=ORIENTED_EDGE('',*,*,#377,.T.);
#256=ORIENTED_EDGE('',*,*,#368,.T.);
#257=ORIENTED_EDGE('',*,*,#381,.F.);
#258=ORIENTED_EDGE('',*,*,#382,.F.);
#259=ORIENTED_EDGE('',*,*,#379,.T.);
#260=ORIENTED_EDGE('',*,*,#367,.T.);
#261=ORIENTED_EDGE('',*,*,#374,.F.);
#262=ORIENTED_EDGE('',*,*,#383,.F.);
#263=ORIENTED_EDGE('',*,*,#381,.T.);
#264=ORIENTED_EDGE('',*,*,#373,.T.);
#265=ORIENTED_EDGE('',*,*,#376,.T.);
#266=ORIENTED_EDGE('',*,*,#378,.T.);
#267=ORIENTED_EDGE('',*,*,#380,.T.);
#268=ORIENTED_EDGE('',*,*,#382,.T.);
#269=ORIENTED_EDGE('',*,*,#383,.T.);
#270=ORIENTED_EDGE('',*,*,#323,.T.);
#271=ORIENTED_EDGE('',*,*,#341,.F.);
#272=ORIENTED_EDGE('',*,*,#322,.T.);
#273=ORIENTED_EDGE('',*,*,#340,.F.);
#274=ORIENTED_EDGE('',*,*,#321,.T.);
#275=ORIENTED_EDGE('',*,*,#339,.F.);
#276=ORIENTED_EDGE('',*,*,#320,.T.);
#277=ORIENTED_EDGE('',*,*,#338,.F.);
#278=ORIENTED_EDGE('',*,*,#319,.T.);
#279=ORIENTED_EDGE('',*,*,#337,.F.);
#280=ORIENTED_EDGE('',*,*,#318,.T.);
#281=ORIENTED_EDGE('',*,*,#336,.F.);
#282=EDGE_CURVE('',#384,#385,#456,.T.);
#283=EDGE_CURVE('',#386,#385,#457,.T.);
#284=EDGE_CURVE('',#387,#386,#458,.T.);
#285=EDGE_CURVE('',#387,#384,#459,.T.);
#286=EDGE_CURVE('',#385,#388,#24,.T.);
#287=EDGE_CURVE('',#389,#388,#460,.T.);
#288=EDGE_CURVE('',#386,#389,#25,.T.);
#289=EDGE_CURVE('',#388,#390,#461,.T.);
#290=EDGE_CURVE('',#391,#390,#462,.T.);
#291=EDGE_CURVE('',#389,#391,#463,.T.);
#292=EDGE_CURVE('',#390,#392,#26,.T.);
#293=EDGE_CURVE('',#393,#392,#464,.T.);
#294=EDGE_CURVE('',#391,#393,#27,.T.);
#295=EDGE_CURVE('',#392,#394,#465,.T.);
#296=EDGE_CURVE('',#395,#394,#466,.T.);
#297=EDGE_CURVE('',#393,#395,#467,.T.);
#298=EDGE_CURVE('',#394,#396,#28,.T.);
#299=EDGE_CURVE('',#397,#396,#468,.T.);
#300=EDGE_CURVE('',#395,#397,#29,.T.);
#301=EDGE_CURVE('',#396,#398,#469,.T.);
#302=EDGE_CURVE('',#399,#398,#470,.T.);
#303=EDGE_CURVE('',#397,#399,#471,.T.);
#304=EDGE_CURVE('',#398,#400,#30,.T.);
#305=EDGE_CURVE('',#401,#400,#472,.T.);
#306=EDGE_CURVE('',#399,#401,#31,.T.);
#307=EDGE_CURVE('',#400,#402,#473,.T.);
#308=EDGE_CURVE('',#403,#402,#474,.T.);
#309=EDGE_CURVE('',#401,#403,#475,.T.);
#310=EDGE_CURVE('',#402,#404,#32,.T.);
#311=EDGE_CURVE('',#405,#404,#476,.T.);
#312=EDGE_CURVE('',#403,#405,#33,.T.);
#313=EDGE_CURVE('',#404,#406,#477,.T.);
#314=EDGE_CURVE('',#407,#406,#478,.T.);
#315=EDGE_CURVE('',#405,#407,#479,.T.);
#316=EDGE_CURVE('',#406,#384,#34,.T.);
#317=EDGE_CURVE('',#407,#387,#35,.T.);
#318=EDGE_CURVE('',#408,#408,#36,.T.);
#319=EDGE_CURVE('',#409,#409,#37,.T.);
#320=EDGE_CURVE('',#410,#410,#38,.T.);
#321=EDGE_CURVE('',#411,#411,#39,.T.);
#322=EDGE_CURVE('',#412,#412,#40,.T.);
#323=EDGE_CURVE('',#413,#413,#41,.T.);
#324=EDGE_CURVE('',#414,#415,#42,.F.);
#325=EDGE_CURVE('',#415,#416,#480,.T.);
#326=EDGE_CURVE('',#416,#417,#43,.F.);
#327=EDGE_CURVE('',#417,#418,#481,.T.);
#328=EDGE_CURVE('',#418,#419,#44,.F.);
#329=EDGE_CURVE('',#419,#420,#482,.T.);
#330=EDGE_CURVE('',#420,#421,#45,.F.);
#331=EDGE_CURVE('',#421,#422,#483,.T.);
#332=EDGE_CURVE('',#422,#423,#46,.F.);
#333=EDGE_CURVE('',#423,#424,#484,.T.);
#334=EDGE_CURVE('',#424,#425,#47,.F.);
#335=EDGE_CURVE('',#425,#414,#485,.T.);
#336=EDGE_CURVE('',#426,#426,#48,.T.);
#337=EDGE_CURVE('',#427,#427,#49,.T.);
#338=EDGE_CURVE('',#428,#428,#50,.T.);
#339=EDGE_CURVE('',#429,#429,#51,.T.);
#340=EDGE_CURVE('',#430,#430,#52,.T.);
#341=EDGE_CURVE('',#431,#431,#53,.T.);
#342=EDGE_CURVE('',#432,#415,#486,.T.);
#343=EDGE_CURVE('',#433,#432,#487,.T.);
#344=EDGE_CURVE('',#433,#416,#488,.T.);
#345=EDGE_CURVE('',#434,#414,#489,.T.);
#346=EDGE_CURVE('',#432,#434,#54,.T.);
#347=EDGE_CURVE('',#435,#425,#490,.T.);
#348=EDGE_CURVE('',#434,#435,#491,.T.);
#349=EDGE_CURVE('',#436,#424,#492,.T.);
#350=EDGE_CURVE('',#435,#436,#55,.T.);
#351=EDGE_CURVE('',#437,#423,#493,.T.);
#352=EDGE_CURVE('',#436,#437,#494,.T.);
#353=EDGE_CURVE('',#438,#422,#495,.T.);
#354=EDGE_CURVE('',#437,#438,#56,.T.);
#355=EDGE_CURVE('',#439,#421,#496,.T.);
#356=EDGE_CURVE('',#438,#439,#497,.T.);
#357=EDGE_CURVE('',#440,#420,#498,.T.);
#358=EDGE_CURVE('',#439,#440,#57,.T.);
#359=EDGE_CURVE('',#441,#419,#499,.T.);
#360=EDGE_CURVE('',#440,#441,#500,.T.);
#361=EDGE_CURVE('',#442,#418,#501,.T.);
#362=EDGE_CURVE('',#441,#442,#58,.T.);
#363=EDGE_CURVE('',#443,#417,#502,.T.);
#364=EDGE_CURVE('',#442,#443,#503,.T.);
#365=EDGE_CURVE('',#443,#433,#59,.T.);
#366=EDGE_CURVE('',#444,#445,#504,.T.);
#367=EDGE_CURVE('',#446,#444,#505,.T.);
#368=EDGE_CURVE('',#447,#446,#506,.T.);
#369=EDGE_CURVE('',#448,#447,#507,.T.);
#370=EDGE_CURVE('',#449,#448,#508,.T.);
#371=EDGE_CURVE('',#445,#449,#509,.T.);
#372=EDGE_CURVE('',#450,#445,#510,.T.);
#373=EDGE_CURVE('',#451,#450,#511,.T.);
#374=EDGE_CURVE('',#451,#444,#512,.T.);
#375=EDGE_CURVE('',#452,#449,#513,.T.);
#376=EDGE_CURVE('',#450,#452,#514,.T.);
#377=EDGE_CURVE('',#453,#448,#515,.T.);
#378=EDGE_CURVE('',#452,#453,#516,.T.);
#379=EDGE_CURVE('',#454,#447,#517,.T.);
#380=EDGE_CURVE('',#453,#454,#518,.T.);
#381=EDGE_CURVE('',#455,#446,#519,.T.);
#382=EDGE_CURVE('',#454,#455,#520,.T.);
#383=EDGE_CURVE('',#455,#451,#521,.T.);
#384=VERTEX_POINT('',#1093);
#385=VERTEX_POINT('',#1094);
#386=VERTEX_POINT('',#1096);
#387=VERTEX_POINT('',#1098);
#388=VERTEX_POINT('',#1102);
#389=VERTEX_POINT('',#1104);
#390=VERTEX_POINT('',#1108);
#391=VERTEX_POINT('',#1110);
#392=VERTEX_POINT('',#1114);
#393=VERTEX_POINT('',#1116);
#394=VERTEX_POINT('',#1120);
#395=VERTEX_POINT('',#1122);
#396=VERTEX_POINT('',#1126);
#397=VERTEX_POINT('',#1128);
#398=VERTEX_POINT('',#1132);
#399=VERTEX_POINT('',#1134);
#400=VERTEX_POINT('',#1138);
#401=VERTEX_POINT('',#1140);
#402=VERTEX_POINT('',#1144);
#403=VERTEX_POINT('',#1146);
#404=VERTEX_POINT('',#1150);
#405=VERTEX_POINT('',#1152);
#406=VERTEX_POINT('',#1156);
#407=VERTEX_POINT('',#1158);
#408=VERTEX_POINT('',#1165);
#409=VERTEX_POINT('',#1167);
#410=VERTEX_POINT('',#1169);
#411=VERTEX_POINT('',#1171);
#412=VERTEX_POINT('',#1173);
#413=VERTEX_POINT('',#1175);
#414=VERTEX_POINT('',#1177);
#415=VERTEX_POINT('',#1178);
#416=VERTEX_POINT('',#1180);
#417=VERTEX_POINT('',#1182);
#418=VERTEX_POINT('',#1184);
#419=VERTEX_POINT('',#1186);
#420=VERTEX_POINT('',#1188);
#421=VERTEX_POINT('',#1190);
#422=VERTEX_POINT('',#1192);
#423=VERTEX_POINT('',#1194);
#424=VERTEX_POINT('',#1196);
#425=VERTEX_POINT('',#1198);
#426=VERTEX_POINT('',#1202);
#427=VERTEX_POINT('',#1204);
#428=VERTEX_POINT('',#1206);
#429=VERTEX_POINT('',#1208);
#430=VERTEX_POINT('',#1210);
#431=VERTEX_POINT('',#1212);
#432=VERTEX_POINT('',#1215);
#433=VERTEX_POINT('',#1217);
#434=VERTEX_POINT('',#1221);
#435=VERTEX_POINT('',#1225);
#436=VERTEX_POINT('',#1229);
#437=VERTEX_POINT('',#1233);
#438=VERTEX_POINT('',#1237);
#439=VERTEX_POINT('',#1241);
#440=VERTEX_POINT('',#1245);
#441=VERTEX_POINT('',#1249);
#442=VERTEX_POINT('',#1253);
#443=VERTEX_POINT('',#1257);
#444=VERTEX_POINT('',#1263);
#445=VERTEX_POINT('',#1264);
#446=VERTEX_POINT('',#1266);
#447=VERTEX_POINT('',#1268);
#448=VERTEX_POINT('',#1270);
#449=VERTEX_POINT('',#1272);
#450=VERTEX_POINT('',#1276);
#451=VERTEX_POINT('',#1278);
#452=VERTEX_POINT('',#1282);
#453=VERTEX_POINT('',#1286);
#454=VERTEX_POINT('',#1290);
#455=VERTEX_POINT('',#1294);
#456=LINE('',#1092,#522);
#457=LINE('',#1095,#523);
#458=LINE('',#1097,#524);
#459=LINE('',#1099,#525);
#460=LINE('',#1103,#526);
#461=LINE('',#1107,#527);
#462=LINE('',#1109,#528);
#463=LINE('',#1111,#529);
#464=LINE('',#1115,#530);
#465=LINE('',#1119,#531);
#466=LINE('',#1121,#532);
#467=LINE('',#1123,#533);
#468=LINE('',#1127,#534);
#469=LINE('',#1131,#535);
#470=LINE('',#1133,#536);
#471=LINE('',#1135,#537);
#472=LINE('',#1139,#538);
#473=LINE('',#1143,#539);
#474=LINE('',#1145,#540);
#475=LINE('',#1147,#541);
#476=LINE('',#1151,#542);
#477=LINE('',#1155,#543);
#478=LINE('',#1157,#544);
#479=LINE('',#1159,#545);
#480=LINE('',#1179,#546);
#481=LINE('',#1183,#547);
#482=LINE('',#1187,#548);
#483=LINE('',#1191,#549);
#484=LINE('',#1195,#550);
#485=LINE('',#1199,#551);
#486=LINE('',#1214,#552);
#487=LINE('',#1216,#553);
#488=LINE('',#1218,#554);
#489=LINE('',#1220,#555);
#490=LINE('',#1224,#556);
#491=LINE('',#1226,#557);
#492=LINE('',#1228,#558);
#493=LINE('',#1232,#559);
#494=LINE('',#1234,#560);
#495=LINE('',#1236,#561);
#496=LINE('',#1240,#562);
#497=LINE('',#1242,#563);
#498=LINE('',#1244,#564);
#499=LINE('',#1248,#565);
#500=LINE('',#1250,#566);
#501=LINE('',#1252,#567);
#502=LINE('',#1256,#568);
#503=LINE('',#1258,#569);
#504=LINE('',#1262,#570);
#505=LINE('',#1265,#571);
#506=LINE('',#1267,#572);
#507=LINE('',#1269,#573);
#508=LINE('',#1271,#574);
#509=LINE('',#1273,#575);
#510=LINE('',#1275,#576);
#511=LINE('',#1277,#577);
#512=LINE('',#1279,#578);
#513=LINE('',#1281,#579);
#514=LINE('',#1283,#580);
#515=LINE('',#1285,#581);
#516=LINE('',#1287,#582);
#517=LINE('',#1289,#583);
#518=LINE('',#1291,#584);
#519=LINE('',#1293,#585);
#520=LINE('',#1295,#586);
#521=LINE('',#1297,#587);
#522=VECTOR('',#868,1.);
#523=VECTOR('',#869,1.);
#524=VECTOR('',#870,1.);
#525=VECTOR('',#871,1.);
#526=VECTOR('',#876,1.);
#527=VECTOR('',#881,1.);
#528=VECTOR('',#882,1.);
#529=VECTOR('',#883,1.);
#530=VECTOR('',#888,1.);
#531=VECTOR('',#893,1.);
#532=VECTOR('',#894,1.);
#533=VECTOR('',#895,1.);
#534=VECTOR('',#900,1.);
#535=VECTOR('',#905,1.);
#536=VECTOR('',#906,1.);
#537=VECTOR('',#907,1.);
#538=VECTOR('',#912,1.);
#539=VECTOR('',#917,1.);
#540=VECTOR('',#918,1.);
#541=VECTOR('',#919,1.);
#542=VECTOR('',#924,1.);
#543=VECTOR('',#929,1.);
#544=VECTOR('',#930,1.);
#545=VECTOR('',#931,1.);
#546=VECTOR('',#954,1.);
#547=VECTOR('',#957,1.);
#548=VECTOR('',#960,1.);
#549=VECTOR('',#963,1.);
#550=VECTOR('',#966,1.);
#551=VECTOR('',#969,1.);
#552=VECTOR('',#986,1.);
#553=VECTOR('',#987,1.);
#554=VECTOR('',#988,1.);
#555=VECTOR('',#991,1.);
#556=VECTOR('',#996,1.);
#557=VECTOR('',#997,1.);
#558=VECTOR('',#1000,1.);
#559=VECTOR('',#1005,1.);
#560=VECTOR('',#1006,1.);
#561=VECTOR('',#1009,1.);
#562=VECTOR('',#1014,1.);
#563=VECTOR('',#1015,1.);
#564=VECTOR('',#1018,1.);
#565=VECTOR('',#1023,1.);
#566=VECTOR('',#1024,1.);
#567=VECTOR('',#1027,1.);
#568=VECTOR('',#1032,1.);
#569=VECTOR('',#1033,1.);
#570=VECTOR('',#1040,1.);
#571=VECTOR('',#1041,1.);
#572=VECTOR('',#1042,1.);
#573=VECTOR('',#1043,1.);
#574=VECTOR('',#1044,1.);
#575=VECTOR('',#1045,1.);
#576=VECTOR('',#1048,1.);
#577=VECTOR('',#1049,1.);
#578=VECTOR('',#1050,1.);
#579=VECTOR('',#1053,1.);
#580=VECTOR('',#1054,1.);
#581=VECTOR('',#1057,1.);
#582=VECTOR('',#1058,1.);
#583=VECTOR('',#1061,1.);
#584=VECTOR('',#1062,1.);
#585=VECTOR('',#1065,1.);
#586=VECTOR('',#1066,1.);
#587=VECTOR('',#1069,1.);
#588=EDGE_LOOP('',(#78,#79,#80,#81));
#589=EDGE_LOOP('',(#82,#83,#84,#85));
#590=EDGE_LOOP('',(#86,#87,#88,#89));
#591=EDGE_LOOP('',(#90,#91,#92,#93));
#592=EDGE_LOOP('',(#94,#95,#96,#97));
#593=EDGE_LOOP('',(#98,#99,#100,#101));
#594=EDGE_LOOP('',(#102,#103,#104,#105));
#595=EDGE_LOOP('',(#106,#107,#108,#109));
#596=EDGE_LOOP('',(#110,#111,#112,#113));
#597=EDGE_LOOP('',(#114,#115,#116,#117));
#598=EDGE_LOOP('',(#118,#119,#120,#121));
#599=EDGE_LOOP('',(#122,#123,#124,#125));
#600=EDGE_LOOP('',(#126));
#601=EDGE_LOOP('',(#127));
#602=EDGE_LOOP('',(#128));
#603=EDGE_LOOP('',(#129));
#604=EDGE_LOOP('',(#130));
#605=EDGE_LOOP('',(#131));
#606=EDGE_LOOP('',(#132,#133,#134,#135,#136,#137,#138,#139,#140,#141,#142,
#143));
#607=EDGE_LOOP('',(#144,#145,#146,#147,#148,#149,#150,#151,#152,#153,#154,
#155));
#608=EDGE_LOOP('',(#156));
#609=EDGE_LOOP('',(#157));
#610=EDGE_LOOP('',(#158));
#611=EDGE_LOOP('',(#159));
#612=EDGE_LOOP('',(#160));
#613=EDGE_LOOP('',(#161));
#614=EDGE_LOOP('',(#162,#163,#164,#165,#166,#167,#168,#169,#170,#171,#172,
#173));
#615=EDGE_LOOP('',(#174,#175,#176,#177));
#616=EDGE_LOOP('',(#178,#179,#180,#181));
#617=EDGE_LOOP('',(#182,#183,#184,#185));
#618=EDGE_LOOP('',(#186,#187,#188,#189));
#619=EDGE_LOOP('',(#190,#191,#192,#193));
#620=EDGE_LOOP('',(#194,#195,#196,#197));
#621=EDGE_LOOP('',(#198,#199,#200,#201));
#622=EDGE_LOOP('',(#202,#203,#204,#205));
#623=EDGE_LOOP('',(#206,#207,#208,#209));
#624=EDGE_LOOP('',(#210,#211,#212,#213));
#625=EDGE_LOOP('',(#214,#215,#216,#217));
#626=EDGE_LOOP('',(#218,#219,#220,#221));
#627=EDGE_LOOP('',(#222,#223,#224,#225,#226,#227));
#628=EDGE_LOOP('',(#228,#229,#230,#231,#232,#233,#234,#235,#236,#237,#238,
#239));
#629=EDGE_LOOP('',(#240,#241,#242,#243));
#630=EDGE_LOOP('',(#244,#245,#246,#247));
#631=EDGE_LOOP('',(#248,#249,#250,#251));
#632=EDGE_LOOP('',(#252,#253,#254,#255));
#633=EDGE_LOOP('',(#256,#257,#258,#259));
#634=EDGE_LOOP('',(#260,#261,#262,#263));
#635=EDGE_LOOP('',(#264,#265,#266,#267,#268,#269));
#636=EDGE_LOOP('',(#270));
#637=EDGE_LOOP('',(#271));
#638=EDGE_LOOP('',(#272));
#639=EDGE_LOOP('',(#273));
#640=EDGE_LOOP('',(#274));
#641=EDGE_LOOP('',(#275));
#642=EDGE_LOOP('',(#276));
#643=EDGE_LOOP('',(#277));
#644=EDGE_LOOP('',(#278));
#645=EDGE_LOOP('',(#279));
#646=EDGE_LOOP('',(#280));
#647=EDGE_LOOP('',(#281));
#648=FACE_BOUND('',#588,.T.);
#649=FACE_BOUND('',#589,.T.);
#650=FACE_BOUND('',#590,.T.);
#651=FACE_BOUND('',#591,.T.);
#652=FACE_BOUND('',#592,.T.);
#653=FACE_BOUND('',#593,.T.);
#654=FACE_BOUND('',#594,.T.);
#655=FACE_BOUND('',#595,.T.);
#656=FACE_BOUND('',#596,.T.);
#657=FACE_BOUND('',#597,.T.);
#658=FACE_BOUND('',#598,.T.);
#659=FACE_BOUND('',#599,.T.);
#660=FACE_BOUND('',#600,.T.);
#661=FACE_BOUND('',#601,.T.);
#662=FACE_BOUND('',#602,.T.);
#663=FACE_BOUND('',#603,.T.);
#664=FACE_BOUND('',#604,.T.);
#665=FACE_BOUND('',#605,.T.);
#666=FACE_BOUND('',#606,.T.);
#667=FACE_BOUND('',#607,.T.);
#668=FACE_BOUND('',#608,.T.);
#669=FACE_BOUND('',#609,.T.);
#670=FACE_BOUND('',#610,.T.);
#671=FACE_BOUND('',#611,.T.);
#672=FACE_BOUND('',#612,.T.);
#673=FACE_BOUND('',#613,.T.);
#674=FACE_BOUND('',#614,.T.);
#675=FACE_BOUND('',#615,.T.);
#676=FACE_BOUND('',#616,.T.);
#677=FACE_BOUND('',#617,.T.);
#678=FACE_BOUND('',#618,.T.);
#679=FACE_BOUND('',#619,.T.);
#680=FACE_BOUND('',#620,.T.);
#681=FACE_BOUND('',#621,.T.);
#682=FACE_BOUND('',#622,.T.);
#683=FACE_BOUND('',#623,.T.);
#684=FACE_BOUND('',#624,.T.);
#685=FACE_BOUND('',#625,.T.);
#686=FACE_BOUND('',#626,.T.);
#687=FACE_BOUND('',#627,.T.);
#688=FACE_BOUND('',#628,.T.);
#689=FACE_BOUND('',#629,.T.);
#690=FACE_BOUND('',#630,.T.);
#691=FACE_BOUND('',#631,.T.);
#692=FACE_BOUND('',#632,.T.);
#693=FACE_BOUND('',#633,.T.);
#694=FACE_BOUND('',#634,.T.);
#695=FACE_BOUND('',#635,.T.);
#696=FACE_BOUND('',#636,.T.);
#697=FACE_BOUND('',#637,.T.);
#698=FACE_BOUND('',#638,.T.);
#699=FACE_BOUND('',#639,.T.);
#700=FACE_BOUND('',#640,.T.);
#701=FACE_BOUND('',#641,.T.);
#702=FACE_BOUND('',#642,.T.);
#703=FACE_BOUND('',#643,.T.);
#704=FACE_BOUND('',#644,.T.);
#705=FACE_BOUND('',#645,.T.);
#706=FACE_BOUND('',#646,.T.);
#707=FACE_BOUND('',#647,.T.);
#708=PLANE('',#785);
#709=PLANE('',#789);
#710=PLANE('',#793);
#711=PLANE('',#797);
#712=PLANE('',#801);
#713=PLANE('',#805);
#714=PLANE('',#809);
#715=PLANE('',#822);
#716=PLANE('',#829);
#717=PLANE('',#832);
#718=PLANE('',#835);
#719=PLANE('',#838);
#720=PLANE('',#841);
#721=PLANE('',#844);
#722=PLANE('',#847);
#723=PLANE('',#848);
#724=PLANE('',#849);
#725=PLANE('',#850);
#726=PLANE('',#851);
#727=PLANE('',#852);
#728=PLANE('',#853);
#729=PLANE('',#854);
#730=ADVANCED_FACE('',(#648),#708,.F.);
#731=ADVANCED_FACE('',(#649),#60,.T.);
#732=ADVANCED_FACE('',(#650),#709,.F.);
#733=ADVANCED_FACE('',(#651),#61,.T.);
#734=ADVANCED_FACE('',(#652),#710,.F.);
#735=ADVANCED_FACE('',(#653),#62,.T.);
#736=ADVANCED_FACE('',(#654),#711,.F.);
#737=ADVANCED_FACE('',(#655),#63,.T.);
#738=ADVANCED_FACE('',(#656),#712,.F.);
#739=ADVANCED_FACE('',(#657),#64,.T.);
#740=ADVANCED_FACE('',(#658),#713,.F.);
#741=ADVANCED_FACE('',(#659),#65,.T.);
#742=ADVANCED_FACE('',(#660,#661,#662,#663,#664,#665,#666,#667),#714,.T.);
#743=ADVANCED_FACE('',(#668,#669,#670,#671,#672,#673,#674),#715,.F.);
#744=ADVANCED_FACE('',(#675),#716,.F.);
#745=ADVANCED_FACE('',(#676),#66,.T.);
#746=ADVANCED_FACE('',(#677),#717,.F.);
#747=ADVANCED_FACE('',(#678),#67,.T.);
#748=ADVANCED_FACE('',(#679),#718,.F.);
#749=ADVANCED_FACE('',(#680),#68,.T.);
#750=ADVANCED_FACE('',(#681),#719,.F.);
#751=ADVANCED_FACE('',(#682),#69,.T.);
#752=ADVANCED_FACE('',(#683),#720,.F.);
#753=ADVANCED_FACE('',(#684),#70,.T.);
#754=ADVANCED_FACE('',(#685),#721,.F.);
#755=ADVANCED_FACE('',(#686),#71,.T.);
#756=ADVANCED_FACE('',(#687,#688),#722,.T.);
#757=ADVANCED_FACE('',(#689),#723,.F.);
#758=ADVANCED_FACE('',(#690),#724,.F.);
#759=ADVANCED_FACE('',(#691),#725,.F.);
#760=ADVANCED_FACE('',(#692),#726,.F.);
#761=ADVANCED_FACE('',(#693),#727,.F.);
#762=ADVANCED_FACE('',(#694),#728,.F.);
#763=ADVANCED_FACE('',(#695),#729,.T.);
#764=ADVANCED_FACE('',(#696,#697),#72,.F.);
#765=ADVANCED_FACE('',(#698,#699),#73,.F.);
#766=ADVANCED_FACE('',(#700,#701),#74,.F.);
#767=ADVANCED_FACE('',(#702,#703),#75,.F.);
#768=ADVANCED_FACE('',(#704,#705),#76,.F.);
#769=ADVANCED_FACE('',(#706,#707),#77,.F.);
#770=CLOSED_SHELL('',(#730,#731,#732,#733,#734,#735,#736,#737,#738,#739,
#740,#741,#742,#743,#744,#745,#746,#747,#748,#749,#750,#751,#752,#753,#754,
#755,#756,#757,#758,#759,#760,#761,#762,#763,#764,#765,#766,#767,#768,#769));
#771=STYLED_ITEM('',(#772),#779);
#772=PRESENTATION_STYLE_ASSIGNMENT((#773));
#773=SURFACE_STYLE_USAGE(.BOTH.,#774);
#774=SURFACE_SIDE_STYLE('',(#775));
#775=SURFACE_STYLE_FILL_AREA(#776);
#776=FILL_AREA_STYLE('',(#777));
#777=FILL_AREA_STYLE_COLOUR('',#778);
#778=COLOUR_RGB('',0.615686274509804,0.811764705882353,0.929411764705882);
#779=MANIFOLD_SOLID_BREP('Part 1',#770);
#780=SHAPE_DEFINITION_REPRESENTATION(#1316,#782);
#781=SHAPE_DEFINITION_REPRESENTATION(#1317,#783);
#782=SHAPE_REPRESENTATION('Assembly 1',(#784,#861,#862,#863),#1309);
#783=SHAPE_REPRESENTATION('Part 1',(#784),#1310);
#784=AXIS2_PLACEMENT_3D('',#1090,#864,#865);
#785=AXIS2_PLACEMENT_3D('',#1091,#866,#867);
#786=AXIS2_PLACEMENT_3D('',#1100,#872,#873);
#787=AXIS2_PLACEMENT_3D('',#1101,#874,#875);
#788=AXIS2_PLACEMENT_3D('',#1105,#877,#878);
#789=AXIS2_PLACEMENT_3D('',#1106,#879,#880);
#790=AXIS2_PLACEMENT_3D('',#1112,#884,#885);
#791=AXIS2_PLACEMENT_3D('',#1113,#886,#887);
#792=AXIS2_PLACEMENT_3D('',#1117,#889,#890);
#793=AXIS2_PLACEMENT_3D('',#1118,#891,#892);
#794=AXIS2_PLACEMENT_3D('',#1124,#896,#897);
#795=AXIS2_PLACEMENT_3D('',#1125,#898,#899);
#796=AXIS2_PLACEMENT_3D('',#1129,#901,#902);
#797=AXIS2_PLACEMENT_3D('',#1130,#903,#904);
#798=AXIS2_PLACEMENT_3D('',#1136,#908,#909);
#799=AXIS2_PLACEMENT_3D('',#1137,#910,#911);
#800=AXIS2_PLACEMENT_3D('',#1141,#913,#914);
#801=AXIS2_PLACEMENT_3D('',#1142,#915,#916);
#802=AXIS2_PLACEMENT_3D('',#1148,#920,#921);
#803=AXIS2_PLACEMENT_3D('',#1149,#922,#923);
#804=AXIS2_PLACEMENT_3D('',#1153,#925,#926);
#805=AXIS2_PLACEMENT_3D('',#1154,#927,#928);
#806=AXIS2_PLACEMENT_3D('',#1160,#932,#933);
#807=AXIS2_PLACEMENT_3D('',#1161,#934,#935);
#808=AXIS2_PLACEMENT_3D('',#1162,#936,#937);
#809=AXIS2_PLACEMENT_3D('',#1163,#938,#939);
#810=AXIS2_PLACEMENT_3D('',#1164,#940,#941);
#811=AXIS2_PLACEMENT_3D('',#1166,#942,#943);
#812=AXIS2_PLACEMENT_3D('',#1168,#944,#945);
#813=AXIS2_PLACEMENT_3D('',#1170,#946,#947);
#814=AXIS2_PLACEMENT_3D('',#1172,#948,#949);
#815=AXIS2_PLACEMENT_3D('',#1174,#950,#951);
#816=AXIS2_PLACEMENT_3D('',#1176,#952,#953);
#817=AXIS2_PLACEMENT_3D('',#1181,#955,#956);
#818=AXIS2_PLACEMENT_3D('',#1185,#958,#959);
#819=AXIS2_PLACEMENT_3D('',#1189,#961,#962);
#820=AXIS2_PLACEMENT_3D('',#1193,#964,#965);
#821=AXIS2_PLACEMENT_3D('',#1197,#967,#968);
#822=AXIS2_PLACEMENT_3D('',#1200,#970,#971);
#823=AXIS2_PLACEMENT_3D('',#1201,#972,#973);
#824=AXIS2_PLACEMENT_3D('',#1203,#974,#975);
#825=AXIS2_PLACEMENT_3D('',#1205,#976,#977);
#826=AXIS2_PLACEMENT_3D('',#1207,#978,#979);
#827=AXIS2_PLACEMENT_3D('',#1209,#980,#981);
#828=AXIS2_PLACEMENT_3D('',#1211,#982,#983);
#829=AXIS2_PLACEMENT_3D('',#1213,#984,#985);
#830=AXIS2_PLACEMENT_3D('',#1219,#989,#990);
#831=AXIS2_PLACEMENT_3D('',#1222,#992,#993);
#832=AXIS2_PLACEMENT_3D('',#1223,#994,#995);
#833=AXIS2_PLACEMENT_3D('',#1227,#998,#999);
#834=AXIS2_PLACEMENT_3D('',#1230,#1001,#1002);
#835=AXIS2_PLACEMENT_3D('',#1231,#1003,#1004);
#836=AXIS2_PLACEMENT_3D('',#1235,#1007,#1008);
#837=AXIS2_PLACEMENT_3D('',#1238,#1010,#1011);
#838=AXIS2_PLACEMENT_3D('',#1239,#1012,#1013);
#839=AXIS2_PLACEMENT_3D('',#1243,#1016,#1017);
#840=AXIS2_PLACEMENT_3D('',#1246,#1019,#1020);
#841=AXIS2_PLACEMENT_3D('',#1247,#1021,#1022);
#842=AXIS2_PLACEMENT_3D('',#1251,#1025,#1026);
#843=AXIS2_PLACEMENT_3D('',#1254,#1028,#1029);
#844=AXIS2_PLACEMENT_3D('',#1255,#1030,#1031);
#845=AXIS2_PLACEMENT_3D('',#1259,#1034,#1035);
#846=AXIS2_PLACEMENT_3D('',#1260,#1036,#1037);
#847=AXIS2_PLACEMENT_3D('',#1261,#1038,#1039);
#848=AXIS2_PLACEMENT_3D('',#1274,#1046,#1047);
#849=AXIS2_PLACEMENT_3D('',#1280,#1051,#1052);
#850=AXIS2_PLACEMENT_3D('',#1284,#1055,#1056);
#851=AXIS2_PLACEMENT_3D('',#1288,#1059,#1060);
#852=AXIS2_PLACEMENT_3D('',#1292,#1063,#1064);
#853=AXIS2_PLACEMENT_3D('',#1296,#1067,#1068);
#854=AXIS2_PLACEMENT_3D('',#1298,#1070,#1071);
#855=AXIS2_PLACEMENT_3D('',#1299,#1072,#1073);
#856=AXIS2_PLACEMENT_3D('',#1300,#1074,#1075);
#857=AXIS2_PLACEMENT_3D('',#1301,#1076,#1077);
#858=AXIS2_PLACEMENT_3D('',#1302,#1078,#1079);
#859=AXIS2_PLACEMENT_3D('',#1303,#1080,#1081);
#860=AXIS2_PLACEMENT_3D('',#1304,#1082,#1083);
#861=AXIS2_PLACEMENT_3D('',#1305,#1084,#1085);
#862=AXIS2_PLACEMENT_3D('',#1306,#1086,#1087);
#863=AXIS2_PLACEMENT_3D('',#1307,#1088,#1089);
#864=DIRECTION('',(0.,0.,1.));
#865=DIRECTION('',(1.,0.,0.));
#866=DIRECTION('',(-0.866025403784439,-0.5,0.));
#867=DIRECTION('',(0.5,-0.866025403784439,0.));
#868=DIRECTION('',(-0.5,0.866025403784439,0.));
#869=DIRECTION('',(0.,0.,-1.));
#870=DIRECTION('',(-0.5,0.866025403784439,0.));
#871=DIRECTION('',(0.,0.,-1.));
#872=DIRECTION('',(0.,0.,-1.));
#873=DIRECTION('',(-1.,0.,0.));
#874=DIRECTION('',(0.,0.,1.));
#875=DIRECTION('',(1.,0.,0.));
#876=DIRECTION('',(0.,0.,-1.));
#877=DIRECTION('',(0.,0.,1.));
#878=DIRECTION('',(1.,0.,0.));
#879=DIRECTION('',(4.32151476087532E-16,-1.,0.));
#880=DIRECTION('',(1.,4.32151476087532E-16,0.));
#881=DIRECTION('',(-1.,-4.32151476087532E-16,0.));
#882=DIRECTION('',(0.,0.,-1.));
#883=DIRECTION('',(-1.,-4.32151476087532E-16,0.));
#884=DIRECTION('',(0.,0.,-1.));
#885=DIRECTION('',(-1.,0.,0.));
#886=DIRECTION('',(0.,0.,1.));
#887=DIRECTION('',(1.,0.,0.));
#888=DIRECTION('',(0.,0.,-1.));
#889=DIRECTION('',(0.,0.,1.));
#890=DIRECTION('',(1.,0.,0.));
#891=DIRECTION('',(0.866025403784439,-0.5,0.));
#892=DIRECTION('',(0.5,0.866025403784439,0.));
#893=DIRECTION('',(-0.5,-0.866025403784439,0.));
#894=DIRECTION('',(0.,0.,-1.));
#895=DIRECTION('',(-0.5,-0.866025403784439,0.));
#896=DIRECTION('',(0.,0.,-1.));
#897=DIRECTION('',(-1.,0.,0.));
#898=DIRECTION('',(0.,0.,1.));
#899=DIRECTION('',(1.,0.,0.));
#900=DIRECTION('',(0.,0.,-1.));
#901=DIRECTION('',(0.,0.,1.));
#902=DIRECTION('',(1.,0.,0.));
#903=DIRECTION('',(0.866025403784439,0.5,0.));
#904=DIRECTION('',(-0.5,0.866025403784439,0.));
#905=DIRECTION('',(0.5,-0.866025403784439,0.));
#906=DIRECTION('',(0.,0.,-1.));
#907=DIRECTION('',(0.5,-0.866025403784439,0.));
#908=DIRECTION('',(0.,0.,-1.));
#909=DIRECTION('',(-1.,0.,0.));
#910=DIRECTION('',(0.,0.,1.));
#911=DIRECTION('',(1.,0.,0.));
#912=DIRECTION('',(0.,0.,-1.));
#913=DIRECTION('',(0.,0.,1.));
#914=DIRECTION('',(1.,0.,0.));
#915=DIRECTION('',(0.,1.,0.));
#916=DIRECTION('',(0.,0.,1.));
#917=DIRECTION('',(1.,0.,0.));
#918=DIRECTION('',(0.,0.,-1.));
#919=DIRECTION('',(1.,0.,0.));
#920=DIRECTION('',(0.,0.,-1.));
#921=DIRECTION('',(-1.,0.,0.));
#922=DIRECTION('',(0.,0.,1.));
#923=DIRECTION('',(1.,0.,0.));
#924=DIRECTION('',(0.,0.,-1.));
#925=DIRECTION('',(0.,0.,1.));
#926=DIRECTION('',(1.,0.,0.));
#927=DIRECTION('',(-0.866025403784439,0.5,0.));
#928=DIRECTION('',(-0.5,-0.866025403784439,0.));
#929=DIRECTION('',(0.5,0.866025403784439,0.));
#930=DIRECTION('',(0.,0.,-1.));
#931=DIRECTION('',(0.5,0.866025403784439,0.));
#932=DIRECTION('',(0.,0.,-1.));
#933=DIRECTION('',(-1.,0.,0.));
#934=DIRECTION('',(0.,0.,1.));
#935=DIRECTION('',(1.,0.,0.));
#936=DIRECTION('',(0.,0.,1.));
#937=DIRECTION('',(1.,0.,0.));
#938=DIRECTION('',(0.,0.,1.));
#939=DIRECTION('',(1.,0.,0.));
#940=DIRECTION('',(0.,0.,1.));
#941=DIRECTION('',(1.,0.,0.));
#942=DIRECTION('',(0.,0.,1.));
#943=DIRECTION('',(1.,0.,0.));
#944=DIRECTION('',(0.,0.,1.));
#945=DIRECTION('',(1.,0.,0.));
#946=DIRECTION('',(0.,0.,1.));
#947=DIRECTION('',(1.,0.,0.));
#948=DIRECTION('',(0.,0.,1.));
#949=DIRECTION('',(1.,0.,0.));
#950=DIRECTION('',(0.,0.,1.));
#951=DIRECTION('',(1.,0.,0.));
#952=DIRECTION('',(0.,0.,1.));
#953=DIRECTION('',(1.,0.,0.));
#954=DIRECTION('',(-0.5,-0.866025403784439,0.));
#955=DIRECTION('',(0.,0.,1.));
#956=DIRECTION('',(1.,0.,0.));
#957=DIRECTION('',(-1.,0.,0.));
#958=DIRECTION('',(0.,0.,1.));
#959=DIRECTION('',(1.,0.,0.));
#960=DIRECTION('',(-0.5,0.866025403784439,0.));
#961=DIRECTION('',(0.,0.,1.));
#962=DIRECTION('',(1.,0.,0.));
#963=DIRECTION('',(0.5,0.866025403784439,0.));
#964=DIRECTION('',(0.,0.,1.));
#965=DIRECTION('',(1.,0.,0.));
#966=DIRECTION('',(1.,5.11845260038233E-16,0.));
#967=DIRECTION('',(0.,0.,1.));
#968=DIRECTION('',(1.,0.,0.));
#969=DIRECTION('',(0.5,-0.866025403784439,0.));
#970=DIRECTION('',(0.,0.,1.));
#971=DIRECTION('',(1.,0.,0.));
#972=DIRECTION('',(0.,0.,1.));
#973=DIRECTION('',(1.,0.,0.));
#974=DIRECTION('',(0.,0.,1.));
#975=DIRECTION('',(1.,0.,0.));
#976=DIRECTION('',(0.,0.,1.));
#977=DIRECTION('',(1.,0.,0.));
#978=DIRECTION('',(0.,0.,1.));
#979=DIRECTION('',(1.,0.,0.));
#980=DIRECTION('',(0.,0.,1.));
#981=DIRECTION('',(1.,0.,0.));
#982=DIRECTION('',(0.,0.,1.));
#983=DIRECTION('',(1.,0.,0.));
#984=DIRECTION('',(-0.866025403784439,0.5,0.));
#985=DIRECTION('',(-0.5,-0.866025403784439,0.));
#986=DIRECTION('',(0.,0.,-1.));
#987=DIRECTION('',(0.5,0.866025403784439,0.));
#988=DIRECTION('',(0.,0.,-1.));
#989=DIRECTION('',(0.,0.,-1.));
#990=DIRECTION('',(-1.,0.,0.));
#991=DIRECTION('',(0.,0.,-1.));
#992=DIRECTION('',(0.,0.,1.));
#993=DIRECTION('',(1.,0.,0.));
#994=DIRECTION('',(-0.866025403784439,-0.5,0.));
#995=DIRECTION('',(0.5,-0.866025403784439,0.));
#996=DIRECTION('',(0.,0.,-1.));
#997=DIRECTION('',(-0.5,0.866025403784439,0.));
#998=DIRECTION('',(0.,0.,-1.));
#999=DIRECTION('',(-1.,0.,0.));
#1000=DIRECTION('',(0.,0.,-1.));
#1001=DIRECTION('',(0.,0.,1.));
#1002=DIRECTION('',(1.,0.,0.));
#1003=DIRECTION('',(5.11845260038233E-16,-1.,0.));
#1004=DIRECTION('',(1.,5.11845260038233E-16,0.));
#1005=DIRECTION('',(0.,0.,-1.));
#1006=DIRECTION('',(-1.,-5.11845260038233E-16,0.));
#1007=DIRECTION('',(0.,0.,-1.));
#1008=DIRECTION('',(-1.,0.,0.));
#1009=DIRECTION('',(0.,0.,-1.));
#1010=DIRECTION('',(0.,0.,1.));
#1011=DIRECTION('',(1.,0.,0.));
#1012=DIRECTION('',(0.866025403784439,-0.5,0.));
#1013=DIRECTION('',(0.5,0.866025403784439,0.));
#1014=DIRECTION('',(0.,0.,-1.));
#1015=DIRECTION('',(-0.5,-0.866025403784439,0.));
#1016=DIRECTION('',(0.,0.,-1.));
#1017=DIRECTION('',(-1.,0.,0.));
#1018=DIRECTION('',(0.,0.,-1.));
#1019=DIRECTION('',(0.,0.,1.));
#1020=DIRECTION('',(1.,0.,0.));
#1021=DIRECTION('',(0.866025403784439,0.5,0.));
#1022=DIRECTION('',(-0.5,0.866025403784439,0.));
#1023=DIRECTION('',(0.,0.,-1.));
#1024=DIRECTION('',(0.5,-0.866025403784439,0.));
#1025=DIRECTION('',(0.,0.,-1.));
#1026=DIRECTION('',(-1.,0.,0.));
#1027=DIRECTION('',(0.,0.,-1.));
#1028=DIRECTION('',(0.,0.,1.));
#1029=DIRECTION('',(1.,0.,0.));
#1030=DIRECTION('',(0.,1.,0.));
#1031=DIRECTION('',(0.,0.,1.));
#1032=DIRECTION('',(0.,0.,-1.));
#1033=DIRECTION('',(1.,0.,0.));
#1034=DIRECTION('',(0.,0.,-1.));
#1035=DIRECTION('',(-1.,0.,0.));
#1036=DIRECTION('',(0.,0.,1.));
#1037=DIRECTION('',(1.,0.,0.));
#1038=DIRECTION('',(0.,0.,1.));
#1039=DIRECTION('',(1.,0.,0.));
#1040=DIRECTION('',(-1.,-5.55111512312578E-16,0.));
#1041=DIRECTION('',(-0.5,0.866025403784439,0.));
#1042=DIRECTION('',(0.5,0.866025403784439,0.));
#1043=DIRECTION('',(1.,0.,0.));
#1044=DIRECTION('',(0.5,-0.866025403784439,0.));
#1045=DIRECTION('',(-0.5,-0.866025403784439,0.));
#1046=DIRECTION('',(-5.55111512312578E-16,1.,0.));
#1047=DIRECTION('',(-1.,-5.55111512312578E-16,0.));
#1048=DIRECTION('',(0.,0.,1.));
#1049=DIRECTION('',(-1.,-5.55111512312578E-16,0.));
#1050=DIRECTION('',(0.,0.,1.));
#1051=DIRECTION('',(-0.866025403784439,0.5,0.));
#1052=DIRECTION('',(-0.5,-0.866025403784439,0.));
#1053=DIRECTION('',(0.,0.,1.));
#1054=DIRECTION('',(-0.5,-0.866025403784439,0.));
#1055=DIRECTION('',(-0.866025403784439,-0.5,0.));
#1056=DIRECTION('',(0.5,-0.866025403784439,0.));
#1057=DIRECTION('',(0.,0.,1.));
#1058=DIRECTION('',(0.5,-0.866025403784439,0.));
#1059=DIRECTION('',(0.,-1.,0.));
#1060=DIRECTION('',(0.,0.,-1.));
#1061=DIRECTION('',(0.,0.,1.));
#1062=DIRECTION('',(1.,0.,0.));
#1063=DIRECTION('',(0.866025403784439,-0.5,0.));
#1064=DIRECTION('',(0.5,0.866025403784439,0.));
#1065=DIRECTION('',(0.,0.,1.));
#1066=DIRECTION('',(0.5,0.866025403784439,0.));
#1067=DIRECTION('',(0.866025403784439,0.5,0.));
#1068=DIRECTION('',(-0.5,0.866025403784439,0.));
#1069=DIRECTION('',(-0.5,0.866025403784439,0.));
#1070=DIRECTION('',(0.,0.,1.));
#1071=DIRECTION('',(1.,0.,0.));
#1072=DIRECTION('',(0.,0.,1.));
#1073=DIRECTION('',(1.,0.,0.));
#1074=DIRECTION('',(0.,0.,1.));
#1075=DIRECTION('',(1.,0.,0.));
#1076=DIRECTION('',(0.,0.,1.));
#1077=DIRECTION('',(1.,0.,0.));
#1078=DIRECTION('',(0.,0.,1.));
#1079=DIRECTION('',(1.,0.,0.));
#1080=DIRECTION('',(0.,0.,1.));
#1081=DIRECTION('',(1.,0.,0.));
#1082=DIRECTION('',(0.,0.,1.));
#1083=DIRECTION('',(1.,0.,0.));
#1084=DIRECTION('',(0.,0.,1.));
#1085=DIRECTION('',(1.,0.,0.));
#1086=DIRECTION('',(0.,0.,1.));
#1087=DIRECTION('',(1.,0.,0.));
#1088=DIRECTION('',(0.,0.,1.));
#1089=DIRECTION('',(1.,0.,0.));
#1090=CARTESIAN_POINT('',(0.,0.,0.));
#1091=CARTESIAN_POINT('',(0.0525,0.0303108891324554,0.002));
#1092=CARTESIAN_POINT('',(0.0525,0.0303108891324554,0.));
#1093=CARTESIAN_POINT('',(0.0685566243270259,0.0025,0.));
#1094=CARTESIAN_POINT('',(0.0364433756729741,0.0581217782649108,0.));
#1095=CARTESIAN_POINT('',(0.0364433756729741,0.0581217782649108,0.002));
#1096=CARTESIAN_POINT('',(0.0364433756729741,0.0581217782649108,0.002));
#1097=CARTESIAN_POINT('',(0.0525,0.0303108891324554,0.002));
#1098=CARTESIAN_POINT('',(0.0685566243270259,0.0025,0.002));
#1099=CARTESIAN_POINT('',(0.0685566243270259,0.0025,0.002));
#1100=CARTESIAN_POINT('',(0.0321132486540519,0.0556217782649108,0.002));
#1101=CARTESIAN_POINT('',(0.0321132486540519,0.0556217782649108,0.));
#1102=CARTESIAN_POINT('',(0.0321132486540519,0.0606217782649107,0.));
#1103=CARTESIAN_POINT('',(0.0321132486540519,0.0606217782649107,0.002));
#1104=CARTESIAN_POINT('',(0.0321132486540519,0.0606217782649107,0.002));
#1105=CARTESIAN_POINT('',(0.0321132486540519,0.0556217782649108,0.002));
#1106=CARTESIAN_POINT('',(-6.93889390390723E-18,0.0606217782649107,0.002));
#1107=CARTESIAN_POINT('',(-6.93889390390723E-18,0.0606217782649107,0.));
#1108=CARTESIAN_POINT('',(-0.0321132486540519,0.0606217782649107,0.));
#1109=CARTESIAN_POINT('',(-0.0321132486540519,0.0606217782649107,0.002));
#1110=CARTESIAN_POINT('',(-0.0321132486540519,0.0606217782649107,0.002));
#1111=CARTESIAN_POINT('',(-6.93889390390723E-18,0.0606217782649107,0.002));
#1112=CARTESIAN_POINT('',(-0.0321132486540519,0.0556217782649107,0.002));
#1113=CARTESIAN_POINT('',(-0.0321132486540519,0.0556217782649107,0.));
#1114=CARTESIAN_POINT('',(-0.0364433756729741,0.0581217782649107,0.));
#1115=CARTESIAN_POINT('',(-0.0364433756729741,0.0581217782649107,0.002));
#1116=CARTESIAN_POINT('',(-0.0364433756729741,0.0581217782649107,0.002));
#1117=CARTESIAN_POINT('',(-0.0321132486540519,0.0556217782649107,0.002));
#1118=CARTESIAN_POINT('',(-0.0525,0.0303108891324553,0.002));
#1119=CARTESIAN_POINT('',(-0.0525,0.0303108891324553,0.));
#1120=CARTESIAN_POINT('',(-0.0685566243270259,0.0025,0.));
#1121=CARTESIAN_POINT('',(-0.0685566243270259,0.0025,0.002));
#1122=CARTESIAN_POINT('',(-0.0685566243270259,0.0025,0.002));
#1123=CARTESIAN_POINT('',(-0.0525,0.0303108891324553,0.002));
#1124=CARTESIAN_POINT('',(-0.0642264973081037,-2.16840434497101E-18,0.002));
#1125=CARTESIAN_POINT('',(-0.0642264973081037,-2.16840434497101E-18,0.));
#1126=CARTESIAN_POINT('',(-0.068556624327026,-0.0025,0.));
#1127=CARTESIAN_POINT('',(-0.068556624327026,-0.0025,0.002));
#1128=CARTESIAN_POINT('',(-0.068556624327026,-0.0025,0.002));
#1129=CARTESIAN_POINT('',(-0.0642264973081037,-2.16840434497101E-18,0.002));
#1130=CARTESIAN_POINT('',(-0.0525,-0.0303108891324553,0.002));
#1131=CARTESIAN_POINT('',(-0.0525,-0.0303108891324553,0.));
#1132=CARTESIAN_POINT('',(-0.0364433756729741,-0.0581217782649107,0.));
#1133=CARTESIAN_POINT('',(-0.0364433756729741,-0.0581217782649107,0.002));
#1134=CARTESIAN_POINT('',(-0.0364433756729741,-0.0581217782649107,0.002));
#1135=CARTESIAN_POINT('',(-0.0525,-0.0303108891324553,0.002));
#1136=CARTESIAN_POINT('',(-0.0321132486540519,-0.0556217782649107,0.002));
#1137=CARTESIAN_POINT('',(-0.0321132486540519,-0.0556217782649107,0.));
#1138=CARTESIAN_POINT('',(-0.0321132486540519,-0.0606217782649107,0.));
#1139=CARTESIAN_POINT('',(-0.0321132486540519,-0.0606217782649107,0.002));
#1140=CARTESIAN_POINT('',(-0.0321132486540519,-0.0606217782649107,0.002));
#1141=CARTESIAN_POINT('',(-0.0321132486540519,-0.0556217782649107,0.002));
#1142=CARTESIAN_POINT('',(-1.38777878078145E-17,-0.0606217782649107,0.002));
#1143=CARTESIAN_POINT('',(-1.38777878078145E-17,-0.0606217782649107,0.));
#1144=CARTESIAN_POINT('',(0.0321132486540519,-0.0606217782649107,0.));
#1145=CARTESIAN_POINT('',(0.0321132486540519,-0.0606217782649107,0.002));
#1146=CARTESIAN_POINT('',(0.0321132486540519,-0.0606217782649107,0.002));
#1147=CARTESIAN_POINT('',(-1.38777878078145E-17,-0.0606217782649107,0.002));
#1148=CARTESIAN_POINT('',(0.0321132486540519,-0.0556217782649107,0.002));
#1149=CARTESIAN_POINT('',(0.0321132486540519,-0.0556217782649107,0.));
#1150=CARTESIAN_POINT('',(0.0364433756729741,-0.0581217782649107,0.));
#1151=CARTESIAN_POINT('',(0.0364433756729741,-0.0581217782649107,0.002));
#1152=CARTESIAN_POINT('',(0.0364433756729741,-0.0581217782649107,0.002));
#1153=CARTESIAN_POINT('',(0.0321132486540519,-0.0556217782649107,0.002));
#1154=CARTESIAN_POINT('',(0.0525,-0.0303108891324553,0.002));
#1155=CARTESIAN_POINT('',(0.0525,-0.0303108891324553,0.));
#1156=CARTESIAN_POINT('',(0.0685566243270259,-0.00249999999999997,0.));
#1157=CARTESIAN_POINT('',(0.0685566243270259,-0.00249999999999997,0.002));
#1158=CARTESIAN_POINT('',(0.0685566243270259,-0.00249999999999997,0.002));
#1159=CARTESIAN_POINT('',(0.0525,-0.0303108891324553,0.002));
#1160=CARTESIAN_POINT('',(0.0642264973081037,2.16840434497101E-17,0.002));
#1161=CARTESIAN_POINT('',(0.0642264973081037,2.16840434497101E-17,0.));
#1162=CARTESIAN_POINT('',(0.0642264973081037,2.16840434497101E-17,0.002));
#1163=CARTESIAN_POINT('',(1.38777878078145E-17,1.38777878078145E-17,0.002));
#1164=CARTESIAN_POINT('',(-0.0662264973081038,6.12323399573677E-20,0.002));
#1165=CARTESIAN_POINT('',(-0.0652264973081038,6.12323399573677E-20,0.002));
#1166=CARTESIAN_POINT('',(-0.0331132486540519,-0.0573538290724796,0.002));
#1167=CARTESIAN_POINT('',(-0.0321132486540519,-0.0573538290724796,0.002));
#1168=CARTESIAN_POINT('',(0.0331132486540519,-0.0573538290724796,0.002));
#1169=CARTESIAN_POINT('',(0.0341132486540519,-0.0573538290724796,0.002));
#1170=CARTESIAN_POINT('',(0.0662264973081037,2.02789968375176E-17,0.002));
#1171=CARTESIAN_POINT('',(0.0672264973081037,2.02789968375176E-17,0.002));
#1172=CARTESIAN_POINT('',(0.0331132486540519,0.0573538290724796,0.002));
#1173=CARTESIAN_POINT('',(0.0341132486540519,0.0573538290724796,0.002));
#1174=CARTESIAN_POINT('',(-0.0331132486540519,0.0573538290724796,0.002));
#1175=CARTESIAN_POINT('',(-0.0321132486540519,0.0573538290724796,0.002));
#1176=CARTESIAN_POINT('',(0.0542264973081038,-6.07153216591882E-18,0.002));
#1177=CARTESIAN_POINT('',(0.0585566243270259,0.0025,0.002));
#1178=CARTESIAN_POINT('',(0.0585566243270259,-0.0025,0.002));
#1179=CARTESIAN_POINT('',(0.045,-0.0259807621135331,0.002));
#1180=CARTESIAN_POINT('',(0.031443375672974,-0.0494615242270663,0.002));
#1181=CARTESIAN_POINT('',(0.0271132486540519,-0.0469615242270664,0.002));
#1182=CARTESIAN_POINT('',(0.0271132486540519,-0.0519615242270663,0.002));
#1183=CARTESIAN_POINT('',(1.38777878078145E-17,-0.0519615242270663,0.002));
#1184=CARTESIAN_POINT('',(-0.0271132486540519,-0.0519615242270663,0.002));
#1185=CARTESIAN_POINT('',(-0.0271132486540519,-0.0469615242270663,0.002));
#1186=CARTESIAN_POINT('',(-0.031443375672974,-0.0494615242270664,0.002));
#1187=CARTESIAN_POINT('',(-0.045,-0.0259807621135332,0.002));
#1188=CARTESIAN_POINT('',(-0.0585566243270259,-0.0025,0.002));
#1189=CARTESIAN_POINT('',(-0.0542264973081038,-2.05998412772246E-17,0.002));
#1190=CARTESIAN_POINT('',(-0.0585566243270259,0.00249999999999997,0.002));
#1191=CARTESIAN_POINT('',(-0.045,0.0259807621135331,0.002));
#1192=CARTESIAN_POINT('',(-0.0314433756729741,0.0494615242270663,0.002));
#1193=CARTESIAN_POINT('',(-0.0271132486540519,0.0469615242270663,0.002));
#1194=CARTESIAN_POINT('',(-0.0271132486540519,0.0519615242270663,0.002));
#1195=CARTESIAN_POINT('',(-1.27184720721712E-17,0.0519615242270663,0.002));
#1196=CARTESIAN_POINT('',(0.0271132486540519,0.0519615242270663,0.002));
#1197=CARTESIAN_POINT('',(0.0271132486540519,0.0469615242270663,0.002));
#1198=CARTESIAN_POINT('',(0.031443375672974,0.0494615242270663,0.002));
#1199=CARTESIAN_POINT('',(0.045,0.0259807621135331,0.002));
#1200=CARTESIAN_POINT('',(1.38777878078145E-17,1.38777878078145E-17,0.));
#1201=CARTESIAN_POINT('',(-0.0662264973081038,6.12323399573677E-20,0.));
#1202=CARTESIAN_POINT('',(-0.0652264973081038,6.12323399573677E-20,0.));
#1203=CARTESIAN_POINT('',(-0.0331132486540519,-0.0573538290724796,0.));
#1204=CARTESIAN_POINT('',(-0.0321132486540519,-0.0573538290724796,0.));
#1205=CARTESIAN_POINT('',(0.0331132486540519,-0.0573538290724796,0.));
#1206=CARTESIAN_POINT('',(0.0341132486540519,-0.0573538290724796,0.));
#1207=CARTESIAN_POINT('',(0.0662264973081037,2.02789968375176E-17,0.));
#1208=CARTESIAN_POINT('',(0.0672264973081037,2.02789968375176E-17,0.));
#1209=CARTESIAN_POINT('',(0.0331132486540519,0.0573538290724796,0.));
#1210=CARTESIAN_POINT('',(0.0341132486540519,0.0573538290724796,0.));
#1211=CARTESIAN_POINT('',(-0.0331132486540519,0.0573538290724796,0.));
#1212=CARTESIAN_POINT('',(-0.0321132486540519,0.0573538290724796,0.));
#1213=CARTESIAN_POINT('',(0.045,-0.0259807621135331,0.03));
#1214=CARTESIAN_POINT('',(0.0585566243270259,-0.0025,0.03));
#1215=CARTESIAN_POINT('',(0.0585566243270259,-0.0025,0.03));
#1216=CARTESIAN_POINT('',(0.045,-0.0259807621135331,0.03));
#1217=CARTESIAN_POINT('',(0.031443375672974,-0.0494615242270663,0.03));
#1218=CARTESIAN_POINT('',(0.031443375672974,-0.0494615242270663,0.03));
#1219=CARTESIAN_POINT('',(0.0542264973081038,-6.07153216591882E-18,0.03));
#1220=CARTESIAN_POINT('',(0.0585566243270259,0.0025,0.03));
#1221=CARTESIAN_POINT('',(0.0585566243270259,0.0025,0.03));
#1222=CARTESIAN_POINT('',(0.0542264973081038,-6.07153216591882E-18,0.03));
#1223=CARTESIAN_POINT('',(0.045,0.0259807621135331,0.03));
#1224=CARTESIAN_POINT('',(0.031443375672974,0.0494615242270663,0.03));
#1225=CARTESIAN_POINT('',(0.031443375672974,0.0494615242270663,0.03));
#1226=CARTESIAN_POINT('',(0.045,0.0259807621135331,0.03));
#1227=CARTESIAN_POINT('',(0.0271132486540519,0.0469615242270663,0.03));
#1228=CARTESIAN_POINT('',(0.0271132486540519,0.0519615242270663,0.03));
#1229=CARTESIAN_POINT('',(0.0271132486540519,0.0519615242270663,0.03));
#1230=CARTESIAN_POINT('',(0.0271132486540519,0.0469615242270663,0.03));
#1231=CARTESIAN_POINT('',(-6.93889390390723E-18,0.0519615242270663,0.03));
#1232=CARTESIAN_POINT('',(-0.0271132486540519,0.0519615242270663,0.03));
#1233=CARTESIAN_POINT('',(-0.0271132486540519,0.0519615242270663,0.03));
#1234=CARTESIAN_POINT('',(-6.93889390390723E-18,0.0519615242270663,0.03));
#1235=CARTESIAN_POINT('',(-0.0271132486540519,0.0469615242270663,0.03));
#1236=CARTESIAN_POINT('',(-0.0314433756729741,0.0494615242270663,0.03));
#1237=CARTESIAN_POINT('',(-0.0314433756729741,0.0494615242270663,0.03));
#1238=CARTESIAN_POINT('',(-0.0271132486540519,0.0469615242270663,0.03));
#1239=CARTESIAN_POINT('',(-0.045,0.0259807621135331,0.03));
#1240=CARTESIAN_POINT('',(-0.0585566243270259,0.00249999999999997,0.03));
#1241=CARTESIAN_POINT('',(-0.0585566243270259,0.00249999999999997,0.03));
#1242=CARTESIAN_POINT('',(-0.045,0.0259807621135331,0.03));
#1243=CARTESIAN_POINT('',(-0.0542264973081038,-2.05998412772246E-17,0.03));
#1244=CARTESIAN_POINT('',(-0.0585566243270259,-0.0025,0.03));
#1245=CARTESIAN_POINT('',(-0.0585566243270259,-0.0025,0.03));
#1246=CARTESIAN_POINT('',(-0.0542264973081038,-2.05998412772246E-17,0.03));
#1247=CARTESIAN_POINT('',(-0.045,-0.0259807621135332,0.03));
#1248=CARTESIAN_POINT('',(-0.031443375672974,-0.0494615242270664,0.03));
#1249=CARTESIAN_POINT('',(-0.031443375672974,-0.0494615242270664,0.03));
#1250=CARTESIAN_POINT('',(-0.045,-0.0259807621135332,0.03));
#1251=CARTESIAN_POINT('',(-0.0271132486540519,-0.0469615242270663,0.03));
#1252=CARTESIAN_POINT('',(-0.0271132486540519,-0.0519615242270663,0.03));
#1253=CARTESIAN_POINT('',(-0.0271132486540519,-0.0519615242270663,0.03));
#1254=CARTESIAN_POINT('',(-0.0271132486540519,-0.0469615242270663,0.03));
#1255=CARTESIAN_POINT('',(3.46944695195361E-18,-0.0519615242270663,0.03));
#1256=CARTESIAN_POINT('',(0.0271132486540519,-0.0519615242270663,0.03));
#1257=CARTESIAN_POINT('',(0.0271132486540519,-0.0519615242270663,0.03));
#1258=CARTESIAN_POINT('',(3.46944695195361E-18,-0.0519615242270663,0.03));
#1259=CARTESIAN_POINT('',(0.0271132486540519,-0.0469615242270664,0.03));
#1260=CARTESIAN_POINT('',(0.0271132486540519,-0.0469615242270664,0.03));
#1261=CARTESIAN_POINT('',(1.38777878078145E-17,1.38777878078145E-17,0.03));
#1262=CARTESIAN_POINT('',(-2.08166817117217E-17,0.0433012701892219,0.03));
#1263=CARTESIAN_POINT('',(0.025,0.0433012701892219,0.03));
#1264=CARTESIAN_POINT('',(-0.025,0.0433012701892219,0.03));
#1265=CARTESIAN_POINT('',(0.0375,0.021650635094611,0.03));
#1266=CARTESIAN_POINT('',(0.05,-1.04083408558608E-17,0.03));
#1267=CARTESIAN_POINT('',(0.0375,-0.021650635094611,0.03));
#1268=CARTESIAN_POINT('',(0.025,-0.0433012701892219,0.03));
#1269=CARTESIAN_POINT('',(3.46944695195361E-18,-0.0433012701892219,0.03));
#1270=CARTESIAN_POINT('',(-0.025,-0.0433012701892219,0.03));
#1271=CARTESIAN_POINT('',(-0.0375,-0.021650635094611,0.03));
#1272=CARTESIAN_POINT('',(-0.05,6.93889390390723E-18,0.03));
#1273=CARTESIAN_POINT('',(-0.0375,0.021650635094611,0.03));
#1274=CARTESIAN_POINT('',(-2.08166817117217E-17,0.0433012701892219,0.005));
#1275=CARTESIAN_POINT('',(-0.025,0.0433012701892219,0.005));
#1276=CARTESIAN_POINT('',(-0.025,0.0433012701892219,0.005));
#1277=CARTESIAN_POINT('',(-2.08166817117217E-17,0.0433012701892219,0.005));
#1278=CARTESIAN_POINT('',(0.025,0.0433012701892219,0.005));
#1279=CARTESIAN_POINT('',(0.025,0.0433012701892219,0.005));
#1280=CARTESIAN_POINT('',(-0.0375,0.021650635094611,0.005));
#1281=CARTESIAN_POINT('',(-0.05,6.93889390390723E-18,0.005));
#1282=CARTESIAN_POINT('',(-0.05,6.93889390390723E-18,0.005));
#1283=CARTESIAN_POINT('',(-0.0375,0.021650635094611,0.005));
#1284=CARTESIAN_POINT('',(-0.0375,-0.021650635094611,0.005));
#1285=CARTESIAN_POINT('',(-0.025,-0.0433012701892219,0.005));
#1286=CARTESIAN_POINT('',(-0.025,-0.0433012701892219,0.005));
#1287=CARTESIAN_POINT('',(-0.0375,-0.021650635094611,0.005));
#1288=CARTESIAN_POINT('',(3.46944695195361E-18,-0.0433012701892219,0.005));
#1289=CARTESIAN_POINT('',(0.025,-0.0433012701892219,0.005));
#1290=CARTESIAN_POINT('',(0.025,-0.0433012701892219,0.005));
#1291=CARTESIAN_POINT('',(3.46944695195361E-18,-0.0433012701892219,0.005));
#1292=CARTESIAN_POINT('',(0.0375,-0.021650635094611,0.005));
#1293=CARTESIAN_POINT('',(0.05,-1.04083408558608E-17,0.005));
#1294=CARTESIAN_POINT('',(0.05,-1.04083408558608E-17,0.005));
#1295=CARTESIAN_POINT('',(0.0375,-0.021650635094611,0.005));
#1296=CARTESIAN_POINT('',(0.0375,0.021650635094611,0.005));
#1297=CARTESIAN_POINT('',(0.0375,0.021650635094611,0.005));
#1298=CARTESIAN_POINT('',(-6.93889390390723E-18,-6.93889390390723E-18,0.005));
#1299=CARTESIAN_POINT('',(-0.0331132486540519,0.0573538290724796,-0.023));
#1300=CARTESIAN_POINT('',(0.0331132486540519,0.0573538290724796,-0.023));
#1301=CARTESIAN_POINT('',(0.0662264973081037,2.02789968375176E-17,-0.023));
#1302=CARTESIAN_POINT('',(0.0331132486540519,-0.0573538290724796,-0.023));
#1303=CARTESIAN_POINT('',(-0.0331132486540519,-0.0573538290724796,-0.023));
#1304=CARTESIAN_POINT('',(-0.0662264973081038,6.12323399573677E-20,-0.023));
#1305=CARTESIAN_POINT('',(0.150208585000038,-0.0465373729467392,-0.0150000001957311));
#1306=CARTESIAN_POINT('',(0.249496386985416,0.0108101605252074,-0.0149999997821967));
#1307=CARTESIAN_POINT('',(0.0508388318121433,0.0108358860015869,-0.0427738906443119));
#1308=MECHANICAL_DESIGN_GEOMETRIC_PRESENTATION_REPRESENTATION('',(#771),
#1309);
#1309=(
GEOMETRIC_REPRESENTATION_CONTEXT(3)
GLOBAL_UNCERTAINTY_ASSIGNED_CONTEXT((#1311))
GLOBAL_UNIT_ASSIGNED_CONTEXT((#1315,#1314,#1313))
REPRESENTATION_CONTEXT('Assembly 1','TOP_LEVEL_ASSEMBLY_PART')
);
#1310=(
GEOMETRIC_REPRESENTATION_CONTEXT(3)
GLOBAL_UNCERTAINTY_ASSIGNED_CONTEXT((#1312))
GLOBAL_UNIT_ASSIGNED_CONTEXT((#1315,#1314,#1313))
REPRESENTATION_CONTEXT('Part 1','COMPONENT_PART')
);
#1311=UNCERTAINTY_MEASURE_WITH_UNIT(LENGTH_MEASURE(1.E-8),#1315,
'DISTANCE_ACCURACY_VALUE','Maximum Tolerance applied to model');
#1312=UNCERTAINTY_MEASURE_WITH_UNIT(LENGTH_MEASURE(1.E-8),#1315,
'DISTANCE_ACCURACY_VALUE','Maximum Tolerance applied to model');
#1313=(
NAMED_UNIT(*)
SI_UNIT($,.STERADIAN.)
SOLID_ANGLE_UNIT()
);
#1314=(
NAMED_UNIT(*)
PLANE_ANGLE_UNIT()
SI_UNIT($,.RADIAN.)
);
#1315=(
LENGTH_UNIT()
NAMED_UNIT(*)
SI_UNIT($,.METRE.)
);
#1316=PRODUCT_DEFINITION_SHAPE('','',#1321);
#1317=PRODUCT_DEFINITION_SHAPE('','',#1322);
#1318=PRODUCT_DEFINITION_SHAPE(' ','NAUO PRDDFN',#13);
#1319=PRODUCT_DEFINITION_SHAPE(' ','NAUO PRDDFN',#14);
#1320=PRODUCT_DEFINITION_SHAPE(' ','NAUO PRDDFN',#15);
#1321=PRODUCT_DEFINITION('','',#1325,#1323);
#1322=PRODUCT_DEFINITION('','',#1326,#1324);
#1323=PRODUCT_DEFINITION_CONTEXT('',#1336,'design');
#1324=PRODUCT_DEFINITION_CONTEXT('',#1336,'design');
#1325=PRODUCT_DEFINITION_FORMATION_WITH_SPECIFIED_SOURCE('','',#1329,
 .NOT_KNOWN.);
#1326=PRODUCT_DEFINITION_FORMATION_WITH_SPECIFIED_SOURCE('','',#1330,
 .NOT_KNOWN.);
#1327=PRODUCT_RELATED_PRODUCT_CATEGORY('','',(#1329));
#1328=PRODUCT_RELATED_PRODUCT_CATEGORY('','',(#1330));
#1329=PRODUCT('Assembly 1','Assembly 1','Assembly 1',(#1333));
#1330=PRODUCT('Part 1','Part 1','Part 1',(#1334));
#1331=PRODUCT_CATEGORY('','');
#1332=PRODUCT_CATEGORY('','');
#1333=PRODUCT_CONTEXT('',#1336,'mechanical');
#1334=PRODUCT_CONTEXT('',#1336,'mechanical');
#1335=APPLICATION_PROTOCOL_DEFINITION('international standard',
'ap242_managed_model_based_3d_engineering',2020,#1336);
#1336=APPLICATION_CONTEXT('managed model based 3d engineering');
ENDSEC;
END-ISO-10303-21;
